<?xml version="1.0" encoding="UTF-8"?>
<svg id="Layer_1" data-name="Layer 1" xmlns="http://www.w3.org/2000/svg" viewBox="0 0 1825 1825">
  <defs>
    <style>
      .cls-1 {
        fill: none;
        stroke: #00d9ff;
        stroke-miterlimit: 10;
        stroke-width: 30px;
      }

      .cls-2 {
        fill: #f2f2f2;
      }

      .cls-3 {
        fill: #9400ff;
      }
    </style>
  </defs>
  <circle cx="912.5" cy="912.5" r="912.5"/>
  <g>
    <g>
      <path class="cls-2" d="m576.96,549.99c125.4,0,212.3,47.3,282.7,121l-111.1,105.6c-46.2-45.1-105.6-73.7-171.6-73.7-117.7,0-193.6,88-193.6,199.1s75.9,199.1,193.6,199.1c66,0,125.4-28.6,171.6-73.7l107.8,105.6c-66,69.3-157.3,121-279.4,121-209,0-357.5-155.1-357.5-352s148.5-352,357.5-352Z"/>
      <path class="cls-2" d="m1258.96,549.99c122.1,0,206.8,45.1,276.1,115.5l-112.2,103.4c-45.1-40.7-101.2-66-163.9-66-117.7,0-193.6,88-193.6,199.1,0,122.1,86.9,199.1,196.9,199.1,115.5,0,171.6-63.8,176-127.6h-188.1v-139.7h363v62.7c0,194.7-114.4,357.5-354.2,357.5-209,0-357.5-155.1-357.5-352s148.5-352,357.5-352Z"/>
    </g>
    <g>
      <path class="cls-3" d="m576.96,549.99c125.4,0,212.3,47.3,282.7,121l-111.1,105.6c-46.2-45.1-105.6-73.7-171.6-73.7-117.7,0-193.6,88-193.6,199.1s75.9,199.1,193.6,199.1c66,0,125.4-28.6,171.6-73.7l107.8,105.6c-66,69.3-157.3,121-279.4,121-209,0-357.5-155.1-357.5-352s148.5-352,357.5-352Z"/>
      <path class="cls-3" d="m1258.96,549.99c122.1,0,206.8,45.1,276.1,115.5l-112.2,103.4c-45.1-40.7-101.2-66-163.9-66-117.7,0-193.6,88-193.6,199.1,0,122.1,86.9,199.1,196.9,199.1,115.5,0,171.6-63.8,176-127.6h-188.1v-139.7h363v62.7c0,194.7-114.4,357.5-354.2,357.5-209,0-357.5-155.1-357.5-352s148.5-352,357.5-352Z"/>
    </g>
    <g>
      <path class="cls-1" d="m576.96,549.99c125.4,0,212.3,47.3,282.7,121l-111.1,105.6c-46.2-45.1-105.6-73.7-171.6-73.7-117.7,0-193.6,88-193.6,199.1s75.9,199.1,193.6,199.1c66,0,125.4-28.6,171.6-73.7l107.8,105.6c-66,69.3-157.3,121-279.4,121-209,0-357.5-155.1-357.5-352s148.5-352,357.5-352Z"/>
      <path class="cls-1" d="m1258.96,549.99c122.1,0,206.8,45.1,276.1,115.5l-112.2,103.4c-45.1-40.7-101.2-66-163.9-66-117.7,0-193.6,88-193.6,199.1,0,122.1,86.9,199.1,196.9,199.1,115.5,0,171.6-63.8,176-127.6h-188.1v-139.7h363v62.7c0,194.7-114.4,357.5-354.2,357.5-209,0-357.5-155.1-357.5-352s148.5-352,357.5-352Z"/>
    </g>
  </g>
</svg>