<?xml version="1.0" encoding="UTF-8"?>
<svg id="Layer_1" data-name="Layer 1" xmlns="http://www.w3.org/2000/svg" viewBox="0 0 1920 1729">
  <defs>
    <style>
      .cls-1 {
        fill: #f7f2da;
      }

      .cls-2 {
        fill: #e81e26;
      }
    </style>
  </defs>
  <circle class="cls-2" cx="960.5" cy="864.5" r="864.5"/>
  <g>
    <g>
      <path d="m493.35,1117.2l-86.01-86.02c-59.91-57.34-96.71-139.93-96.71-233.65,0-181.02,134.37-316.67,314.96-316.67,57.34,0,127.52,13.69,173.74,42.79l105.7,105.7v95l-10.27,4.28c-32.52-30.81-97.14-60.77-164.33-60.77-134.37,0-225.52,88.58-225.52,217.82,0,45.79,8.99,81.73,28.67,110.41,31.24,14.12,67.61,21.82,107.41,21.82,56.06,0,107.41-14.55,155.77-44.93l108.27,103.99v95.43c-42.37,26.96-110.83,42.79-178.02,42.79-101.85,0-172.46-39.37-233.65-98Zm296.56-50.5v-75.74c-44.93,25.25-96.29,38.94-148.92,38.94-142.93,0-242.64-96.71-242.64-234.51s96.71-229.8,237.5-229.8c57.77,0,115.11,16.26,154.06,43.65v-77.03c-39.37-24.39-102.7-39.37-164.33-39.37-173.74,0-302.98,130.52-302.98,304.69s130.52,306.4,301.26,306.4c51.78,0,122.82-10.7,166.04-37.23Zm-296.99-181.02c0-32.1,5.56-61.62,15.41-88.15h-6.42v-7.7h7.7v4.28c2.14-5.13,4.28-10.7,6.85-15.41v-5.14h2.57c6.42-12.41,14.12-23.96,22.68-34.66h-11.55v-12.41h11.98v11.55c3.85-4.71,8.13-9.41,12.41-13.69h-9.84v-13.69h13.69v9.84c3.85-3.85,7.7-7.27,11.55-10.7h-10.7v-15.41h14.12v-14.12h-14.12v14.12h-15.41v-14.98h14.55v-14.55h-14.55v14.55h-15.41v-15.41h14.55v-14.55h-14.55v14.55h-14.98v-14.98h14.55v-14.55h-14.55v14.12h-15.41v-14.98h14.55v-14.55h-14.55v14.55h-15.41v-4.71l-5.99,5.56h5.56v13.69h-14.12v-5.56l-6.85,7.7h4.71v12.41h-11.98v-3.85l-5.14,7.27h1.28v11.13h-8.56c-15.83,26.96-24.82,51.78-29.1,83.45h4.28v5.14h-4.71c-1.28,9.41-1.71,19.26-1.71,29.53,0,84.73,39.37,153.2,104.42,190.86-14.55-27.39-21.82-60.77-21.82-100.56Zm-80.88-94.15h4.28v4.28h-4.28v-4.28Zm13.27-77.88h8.13v7.7h-8.13v-7.7Zm.86,30.81h6.85v6.85h-6.85v-6.85Zm.43,31.24h5.56v5.56h-5.56v-5.56Zm.86,31.24h3.85v3.85h-3.85v-3.85Zm12.41-109.55h9.41v9.41h-9.41v-9.41Zm.86,31.24h8.13v8.13h-8.13v-8.13Zm.43,31.24h6.85v6.85h-6.85v-6.85Zm.86,31.24h5.56v5.13h-5.56v-5.13Zm.86,31.24h3.85v3.85h-3.85v-3.85Zm11.55-140.79h11.13v10.7h-11.13v-10.7Zm.86,31.24h9.41v9.41h-9.41v-9.41Zm.86,31.24h7.7v7.7h-7.7v-7.7Zm.43,31.24h6.85v6.42h-6.85v-6.42Zm.86,30.81h5.14v5.56h-5.14v-5.56Zm.43,31.24h4.28v4.28h-4.28v-4.28Zm11.13-171.6h12.41v11.98h-12.41v-11.98Zm.86,31.24h10.7v10.7h-10.7v-10.7Zm.86,31.24h9.41v8.99h-9.41v-8.99Zm.43,30.81h8.13v8.13h-8.13v-8.13Zm.86,31.24h6.42v6.85h-6.42v-6.85Zm.43,31.24h5.56v5.56h-5.56v-5.56Zm.86,31.24h3.85v3.85h-3.85v-3.85Zm10.27-203.27h13.69v13.69h-13.69v-13.69Zm.86,31.24h12.41v12.41h-12.41v-12.41Zm.86,31.24h10.7v10.7h-10.7v-10.7Zm.43,31.24h9.41v9.41h-9.41v-9.41Zm.86,31.24h8.13v8.13h-8.13v-8.13Zm.43,31.24h6.85v6.85h-6.85v-6.85Zm.86,31.24h5.14v5.14h-5.14v-5.14Zm.43,31.24h4.28v3.85h-4.28v-3.85Zm10.7-203.27h13.69v13.69h-13.69v-13.69Zm.86,31.24h11.98v12.41h-11.98v-12.41Zm.43,31.24h10.7v10.7h-10.7v-10.7Zm.86,31.24h9.41v9.41h-9.41v-9.41Zm12.84-78.74h14.12v14.12h-14.12v-14.12Zm13.27-62.48v-12.84h-8.13l-4.71,2.57v10.27h12.84Zm-12.41,94.15h12.41v11.98h-12.41v-11.98Zm.86,31.24h10.7v10.7h-10.7v-10.7Zm26.53-109.98v-12.84h-12.84v12.84h12.84Zm-12.84,62.48h13.69v13.69h-13.69v-13.69Zm12.41-93.72v-7.27l-11.55,4.71v2.57h11.55Zm15.83,46.64v-13.27h-12.84v13.27h12.84Zm-.86-31.24v-11.55h-11.13v11.55h11.13Zm16.26,46.22v-12.84h-13.27v12.84h13.27Zm-.86-31.24v-11.13h-11.55v11.13h11.55Zm-.86-31.24v-9.84h-9.84v9.84h9.84Zm17.55,95v-.43h-14.55v11.13c4.71-3.85,9.41-7.27,14.55-10.7Zm-.86-17.12v-12.84h-12.84v12.84h12.84Zm-.43-31.24v-11.55h-11.55v11.55h11.55Zm-.86-31.24v-9.84h-9.84v9.84h9.84Zm-.86-31.24v-3l-8.13,1.71v1.28h8.13Zm5.99,109.12l11.55-6.85v-6.42h-12.84v13.27h1.28Zm10.7-31.24v-11.55h-11.55v11.55h11.55Zm-.86-31.24v-9.84h-9.84v9.84h9.84Zm-.86-31.67v-8.13h-8.13v8.13h8.13Zm17.12,77.88v-11.55h-11.55v11.55h11.55Zm-.86-31.24v-9.84h-9.84v9.84h9.84Zm-.86-31.24v-8.13h-8.13v8.13h8.13Zm-.86-31.24v-5.56l-6.42.43v5.14h6.42Zm16.69,77.88v-9.84h-9.84v9.84h9.84Zm-.43-31.67v-8.13h-8.13v8.13h8.13Zm-.86-31.24v-6.42h-6.85v6.42h6.85Zm17.54,68.47h-10.7v3.85l10.7-3.85Zm-1.71-21.82v-8.13h-8.13v8.13h8.13Zm-.86-31.24v-6.42h-6.42v6.42h6.42Zm-.43-31.24v-5.14h-5.14v5.14h5.14Zm4.28,537.06v-3.42h-3.42v3.42h3.42Zm12.41-459.17v-8.13h-8.13v8.13h8.13Zm-.86-31.24v-6.85h-6.42v6.85h6.42Zm-.86-31.24v-5.14h-5.14v5.14h5.14Zm4.71,537.06v-3.85h-3.85v3.85h3.85Zm11.55-490.84v-6.42h-6.85v6.42h6.85Zm-.86-31.24v-5.14h-5.14v5.14h5.14Zm5.14,507.53v-5.13h-5.56v5.13h5.56Zm-.86,29.53v-3.85h-3.85v3.85h3.85Zm11.55-492.12v-4.71h-6.42v5.56l6.42-.86Zm-.43-29.53v-5.14h-5.14v5.14h5.14Zm4.71,507.53v-5.56h-5.56v5.56h5.56Zm-.86,29.1v-3.85h-3.85v3.85h3.85Zm11.13-521.65v-4.71h-5.14v4.71h5.14Zm5.56,478v-6.85h-6.85v6.85h6.85Zm-.86,29.53v-5.56h-5.14v5.56h5.14Zm-.86,29.1v-3.42h-3.42v3.42h3.42Zm11.55-524.65v-1.71h-5.14v2.14l5.14-.43Zm6.42,451.9v-3.85l-8.99,1.71v2.14h8.99Zm-.86,29.53v-7.27h-7.27v7.27h7.27Zm-1.28,29.1v-5.14h-5.14v5.14h5.14Zm-.43,29.53v-3.85h-3.85v3.85h3.85Zm17.55-73.18v-8.56h-8.99v8.56h8.99Zm-.86,29.53v-7.27h-7.27v7.27h7.27Zm-.86,29.1v-5.13h-5.56v5.13h5.56Zm17.55-72.75v-10.27h-10.7v10.27h10.7Zm-.86,29.53v-8.99h-8.99v8.99h8.99Zm-.86,29.1v-7.27h-7.27v7.27h7.27Zm-.86,29.53v-5.56h-5.56v5.56h5.56Zm18.4-102.28v-6.42l-11.98,4.71v1.71h11.98Zm-.86,29.1v-10.27h-10.27v10.27h10.27Zm-.86,29.53v-8.99h-8.56v8.99h8.56Zm-.86,29.1v-6.85h-6.85v6.85h6.85Zm17.97-72.75v-12.41h-12.41v12.41h12.41Zm-1.28,29.53v-10.7h-10.27v10.7h10.27Zm-.43,29.1v-8.99h-8.99v8.99h8.99Zm-.86,29.53v-7.28h-7.27v7.28h7.27Zm17.97-102.28v-13.69h-13.69v13.69h13.69Zm-.43,29.1v-11.98h-12.41v11.98h12.41Zm-.86,29.53v-10.7h-10.7v10.7h10.7Zm-.86,29.1v-8.56h-8.99v8.56h8.99Zm89.87-548.61l-91.15-91.15v77.46l91.15,85.16v-71.46Zm0,447.62l-91.15-87.3v78.74l91.15,89.44v-80.88Zm-72.32,28.24v-13.69h-14.12v13.69h14.12Zm-.86,29.53v-12.41h-12.41v12.41h12.41Zm-.86,29.1v-10.7h-10.7v10.7h10.7Zm-.86,24.39v-3.85h-8.99v5.99l8.99-2.14Zm17.54-68.04v-13.69h-13.69v13.69h13.69Zm-.86,29.53v-12.41h-11.98v12.41h11.98Zm-.86,29.1v-10.27h-10.27v10.27h10.27Zm16.69-43.22v-14.12h-13.69v14.12h13.69Zm-.86,29.1v-12.41h-11.98v12.41h11.98Zm15.83-14.12v-13.69h-13.69v13.69h13.69Zm-.43,23.54v-6.42h-12.41v11.13l12.41-4.71Zm15.83-8.56v-13.69h-14.12v13.69h14.12Z"/>
      <path d="m1115.13,1114.2l-93.29-93.29c-50.92-50.92-87.3-127.95-87.3-222.53,0-182.3,138.65-317.53,325.66-317.53,53.49,0,127.1,13.27,187.01,47.07l104.84,104.84v94.15l-9.41,4.71c-53.06-39.37-121.96-63.76-179.3-63.33-136.51,0-231.94,91.15-231.94,221.67,0,45.36,8.99,79.17,27.39,106.13,31.67,14.55,68.04,22.25,108.27,22.25,42.37,0,81.74-9.84,115.11-29.1v-29.96h-32.09l-106.55-106.55v-85.16h233.65l106.56,106.56v271.31c-53.06,45.79-135.23,69.75-223.81,69.75-95.86,0-176.74-33.38-244.78-100.99Zm353.47-74.03v-260.61h-213.11v64.62h138.65v151.92c-38.94,23.54-78.74,34.23-127.1,34.23-139.93,0-242.21-92.86-242.21-230.66s100.56-233.65,243.92-233.65c59.05-.43,118.11,15.83,168.18,46.64v-77.03c-49.21-27.39-114.69-42.79-176.74-42.79-180.59,0-313.67,129.66-313.67,305.54s133.09,305.54,310.25,305.54c78.74,0,160.9-24.39,211.83-63.76Zm-349.19-150.2c0-5.99,0-11.98.43-17.54h-3.42v-4.71h3.85c2.14-24.82,7.7-47.93,15.83-69.33h-6.85v-9.41h9.42v3.42l5.13-11.13v-8.13h4.28c6.42-11.98,14.12-23.11,22.68-33.38h-13.27v-14.12h14.12v13.27c3.85-4.71,8.13-9.41,12.41-13.69h-11.98v-15.41h14.55v-14.55h-14.55v14.55h-15.41v-14.98h-14.98v-15.41h14.55v-14.55h-14.55v14.55h-15.41v-15.41h14.55v-14.12h-14.55v14.12h-15.41v-14.98h-14.98v-3.42l-3.85,3.85h3v14.12h-13.69l-2.14,1.71v12.84h-8.99c-16.26,26.96-25.68,52.21-30.38,82.16h5.56v5.99h-5.99v-3c-1.71,11.98-2.57,23.96-2.57,36.37,0,82.59,38.94,148.92,102.28,186.15-15.41-30.81-19.68-64.62-19.68-95.86Zm-79.17-98.42h4.71v4.71h-4.71v-4.71Zm12.84-78.74h9.42v9.41h-9.42v-9.41Zm.86,31.24h7.7v7.7h-7.7v-7.7Zm.86,31.24h5.99v6.42h-5.99v-6.42Zm.43,31.24h4.71v4.71h-4.71v-4.71Zm12.41-109.55h10.7v10.7h-10.7v-10.7Zm.86,31.24h8.99v9.41h-8.99v-9.41Zm.43,31.24h8.13v7.7h-8.13v-7.7Zm.86,31.24h6.42v5.99h-6.42v-5.99Zm.86,31.24h4.71v4.71h-4.71v-4.71Zm11.55-141.22h12.41v12.41h-12.41v-12.41Zm.43,31.24h11.13v11.13h-11.13v-11.13Zm.86,31.24h9.41v9.41h-9.41v-9.41Zm.86,31.24h7.7v8.13h-7.7v-8.13Zm.86,31.67h5.99v5.99h-5.99v-5.99Zm.86,31.24h4.71v4.28h-4.71v-4.28Zm10.7-172.46h13.69v13.69h-13.69v-13.69Zm.43,31.24h12.41v12.41h-12.41v-12.41Zm.86,31.24h11.13v10.7h-11.13v-10.7Zm.86,31.24h9.41v9.41h-9.41v-9.41Zm.86,31.24h7.7v7.7h-7.7v-7.7Zm.86,31.24h5.99v6.42h-5.99v-6.42Zm.43,31.24h4.71v4.71h-4.71v-4.71Zm24.39-203.7v-14.12h-14.12v14.12h14.12Zm-13.69,31.24h14.12v14.12h-14.12v-14.12Zm.86,31.24h12.41v12.84h-12.41v-12.84Zm.86,31.24h10.7v11.13h-10.7v-11.13Zm.43,31.67h9.41v8.99h-9.41v-8.99Zm.86,31.24h8.13v7.7h-8.13v-7.7Zm.86,31.24h6.42v5.99h-6.42v-5.99Zm24.39-203.7v-12.84h-12.84v12.84h12.84Zm-12.84,62.48h13.69v14.12h-13.69v-14.12Zm.43,31.24h12.84v12.41h-12.84v-12.41Zm.86,31.24h11.13v11.13h-11.13v-11.13Zm13.69-47.07h14.12v13.69h-14.12v-13.69Zm13.27-62.48v-12.84h-12.84v12.84h12.84Zm-12.41,93.72h12.41v12.41h-12.41v-12.41Zm11.55-124.96v-11.55h-4.71l-6.42,3.42v8.13h11.13Zm16.69,77.46v-14.12h-14.12v14.12h14.12Zm-.86-31.24v-12.84h-12.84v12.84h12.84Zm-.43-31.24v-11.13h-11.55v11.13h11.55Zm-.86-31.24v-4.28l-9.41,4.28h9.41Zm16.69,77.88v-12.84h-12.84v12.84h12.84Zm-.86-31.24v-11.55h-11.13v11.55h11.13Zm-.43-31.24v-9.84h-9.84v9.84h9.84Zm15.41,94.57h-12.41v11.13c3.85-3.85,8.13-7.7,12.41-11.13Zm1.28-16.69v-12.84h-12.84v12.84h12.84Zm-.86-31.67v-11.13h-11.13v11.13h11.13Zm-.86-30.81v-10.27h-9.84v10.27h9.84Zm-.43-31.24v-8.56h-8.56v8.56h8.56Zm17.12,98.42v-2.57h-12.84v11.98c4.28-3.42,8.56-6.42,12.84-9.41Zm-.43-20.97v-11.13h-11.55v11.13h11.55Zm-.86-31.24v-9.84h-9.84v9.84h9.84Zm-.43-31.24v-8.56h-8.99v8.56h8.99Zm10.27,77.88l5.99-3.42v-8.13h-11.13v11.55h5.14Zm5.56-31.24v-9.84h-10.27v9.84h10.27Zm-.86-31.24v-8.56h-8.56v8.56h8.56Zm-.43-31.24v-7.27h-7.28v7.27h7.28Zm16.26,77.88v-10.27h-9.84v10.27h9.84Zm-.43-31.24v-8.99h-8.56v8.99h8.56Zm-.86-31.24v-7.27h-7.28v7.27h7.28Zm-.43-31.24v-4.71l-5.99.86v3.85h5.99Zm16.26,77.46v-8.56h-8.56v8.56h8.56Zm-.43-31.24v-7.27h-7.27v7.27h7.27Zm-.86-30.81v-5.99h-5.99v5.99h5.99Zm17.12,70.61v-1.71h-8.99v5.14l8.99-3.42Zm-.86-24.39v-7.27h-7.27v7.27h7.27Zm-.86-31.24v-5.99h-5.99v5.99h5.99Zm-.43-31.24v-4.71h-4.71v4.71h4.71Zm8.56,281.15v-7.7h-11.13v7.7h11.13Zm-5.99,256.76v-3.85h-3.85v3.85h3.85Zm13.69-460.03v-7.27h-7.28v7.27h7.28Zm-.43-31.24v-5.99h-5.99v5.99h5.99Zm-.86-31.24v-4.71h-4.71v4.71h4.71Zm8.13,280.3v-11.13h-10.7v11.13h10.7Zm-5.99,256.76v-3.85h-3.85v3.85h3.85Zm13.69-490.84v-5.56h-5.99v5.56h5.99Zm-.43-30.81v-4.71h-4.71v4.71h4.71Zm1.71,507.96v-5.14h-5.13v5.14h5.13Zm6.42-228.09v-11.13h-11.13v11.13h11.13Zm-6.85,256.33v-3.85h-3.85v3.85h3.85Zm5.99-286.71v-6.85h-9.42v6.85h9.42Zm8.56-203.7v-5.56h-5.99v5.99l5.99-.43Zm-.43-30.81v-4.71h-4.71v4.71h4.71Zm1.28,507.53v-5.13h-5.56v5.13h5.56Zm5.99-228.09v-10.7h-11.13v10.7h11.13Zm-6.85,256.33v-3.85h-3.85v3.85h3.85Zm6.42-286.29v-9.84h-9.84v9.84h9.84Zm9.41,243.92v-6.42h-6.42v6.42h6.42Zm-1.28-478v-4.71h-4.71v4.71h4.71Zm.86,506.67v-5.13h-5.56v5.13h5.56Zm-.86,28.24v-3.85h-3.85v3.85h3.85Zm7.27-255.48v-11.13h-10.7v11.13h10.7Zm-.86-30.81v-9.42h-9.42v9.42h9.42Zm-.86-30.38v-5.99h-8.13v5.99h8.13Zm10.7,245.63v-2.57l-7.27,1.28v1.28h7.27Zm-.43,28.67v-6.42h-6.42v6.42h6.42Zm-.43,28.67v-5.13h-5.13v5.13h5.13Zm0-508.38v-2.14h-4.71v2.14h4.71Zm-.86,536.63v-3.85h-3.85v3.85h3.85Zm7.7-255.48v-11.13h-11.13v11.13h11.13Zm-.43-30.38v-9.41h-9.84v9.41h9.84Zm-.86-30.38v-8.13h-8.13v8.13h8.13Zm10.27,245.21v-7.27h-7.7v7.27h7.7Zm-.86,28.67v-6.42h-6.42v6.42h6.42Zm-.43,28.67v-5.13h-5.14v5.13h5.14Zm7.27-232.37v-5.56h-11.13v5.56h11.13Zm-.86-24.82v-9.42h-9.42v9.42h9.42Zm-.86-30.81v-8.13h-8.13v8.13h8.13Zm-.86-30.38v-5.14h-6.42v5.14h6.42Zm11.55,247.35v-8.99h-8.99v8.99h8.99Zm-.43,28.67v-7.7h-7.7v7.7h7.7Zm-.86,28.24v-6.42h-6.42v6.42h6.42Zm-.43,28.67v-5.13h-5.14v5.13h5.14Zm3.42-256.76v-9.84h-6.42v9.84h6.42Zm0-30.38v-8.56h-5.56v8.56h5.56Zm0-30.81v-6.42h-4.71v6.42h4.71Zm12.84,246.92v-8.99h-8.99v8.99h8.99Zm-.43,28.67v-7.7h-7.7v7.7h7.7Zm-.86,28.24v-6.42h-6.42v6.42h6.42Zm1.71-85.59v-2.57l-7.7,2.57h7.7Zm14.55,14.55v-9.84h-9.84v9.84h9.84Zm-.43,28.67v-8.99h-8.99v8.99h8.99Zm-.43,28.67v-7.7h-7.7v7.7h7.7Zm-.86,28.24v-6.42h-6.42v6.42h6.42Zm17.12-99.28v-11.55h-9.42l-1.71.86v10.7h11.13Zm-.43,28.24v-9.84h-10.27v9.84h10.27Zm-.86,28.67v-8.99h-8.99v8.99h8.99Zm-.43,28.67v-7.7h-7.7v7.7h7.7Zm16.69-99.71v-8.99l-12.41,5.99v3h12.41Zm-.43,28.67v-11.55h-11.13v11.55h11.13Zm-.43,28.24v-9.84h-10.27v9.84h10.27Zm-.86,28.67v-8.99h-8.56v8.99h8.56Zm-.43,28.67v-7.7h-7.7v7.7h7.7Zm16.69-99.71v-12.41h-12.41v12.41h12.41Zm-.43,28.67v-11.55h-11.13v11.55h11.13Zm-.43,28.24v-9.84h-10.27v9.84h10.27Zm-.86,28.67v-8.99h-8.56v8.99h8.56Zm86.87-543.47l-91.15-91.15v82.16l91.15,86.44v-77.46Zm-84.3,429.22v-3.85l-6.42,3.85h6.42Zm14.55,14.55v-13.69h-13.69v13.69h13.69Zm-.43,28.67v-12.41h-12.84v12.41h12.84Zm-.86,28.67v-11.55h-11.13v11.55h11.13Zm-.43,28.24v-9.84h-10.27v9.84h10.27Zm-.86,22.68v-3h-8.56v5.13l8.56-2.14Zm103.13-49.64h-12.41v-13.69h2.57l10.7,10.7v-166.47h-2.14v-4.71h2.14v-24.39h-3.85v-7.7h3.85v-21.4h-5.13v-10.7h5.13v-17.55h-6.85v-11.98l-3.42-3.42h-11.98v-11.98l-3.42-3.42h-11.55v-11.55l-3.85-3.85h-11.55v-11.55l-3.85-3.85h-11.13v-11.13l-3.85-3.85h-11.55v-11.55l-3.85-3.85h-4.28v17.97h5.13v11.13h-5.13v20.97h3.85v7.7h-3.85v24.39h2.14v4.71h-2.14v166.89l3.85,3.85v3h-12.84l-.86.43v14.55h14.55v14.55h14.55v14.55h14.55v14.55h14.55v14.55h14.55v14.55h14.55v9.41l12.84-9.84Zm-86.01-44.08v-13.69h-13.69v13.69h13.69Zm-.43,28.67v-12.41h-12.84v12.41h12.84Zm-.86,28.67v-11.13h-11.13v11.13h11.13Zm-.43,28.24v-9.84h-10.27v9.84h10.27Zm2.14-127.95h3l10.7,10.7v3h-13.69v-13.69Zm14.12,57.34v-13.69h-13.69v13.69h13.69Zm-.43,28.24v-12.41h-12.84v12.41h12.84Zm-.86,28.67v-11.13h-11.13v11.13h11.13Zm-7.7-342.35h10.7v10.7h-10.7v-10.7Zm1.28,32.1h8.13v7.7h-8.13v-7.7Zm1.71,32.1h4.71v4.28h-4.71v-4.28Zm6.42,178.45h3l10.7,10.7v3h-13.69v-13.69Zm14.12,57.34v-13.69h-13.69v13.69h13.69Zm-.43,28.24v-12.41h-12.41v12.41h12.41Zm-.86,20.54v-3h-11.13v7.7l11.13-4.71Zm-7.27-333.79h11.13v11.13h-11.13v-11.13Zm1.71,32.1h7.7v8.13h-7.7v-8.13Zm1.71,32.09h4.28v4.71h-4.28v-4.71Zm5.99,178.02h2.57l10.7,10.7v3h-13.27v-13.69Zm13.69,57.34v-13.69h-13.69v13.69h13.69Zm-2.57,28.24l2.14-.86v-11.55h-12.41v12.41h10.27Zm-5.14-312.39h10.7v10.7h-10.7v-10.7Zm1.28,32.1h8.13v7.7h-8.13v-7.7Zm1.71,32.09h4.71v4.71h-4.71v-4.71Zm5.56,177.16h2.57l10.7,10.7v3h-13.27v-13.69Zm13.69,57.34v-13.69h-13.69v13.69h13.69Zm-7.28-283.29h11.13v10.7h-11.13v-10.7Zm1.71,31.67h7.7v8.13h-7.7v-8.13Zm1.71,32.09h4.71v4.71h-4.71v-4.71Zm4.71,176.74h2.57l10.7,10.7v3h-13.27v-13.69Zm5.56,43.65h-5.56v3.42l5.56-3.42Zm1.71-269.17h11.13v11.13h-11.13v-11.13Zm1.71,32.1h7.7v7.7h-7.7v-7.7Zm1.28,32.09h4.71v4.71h-4.71v-4.71Z"/>
    </g>
    <g>
      <path class="cls-1" d="m493.35,1117.2l-86.01-86.02c-59.91-57.34-96.71-139.93-96.71-233.65,0-181.02,134.37-316.67,314.96-316.67,57.34,0,127.52,13.69,173.74,42.79l105.7,105.7v95l-10.27,4.28c-32.52-30.81-97.14-60.77-164.33-60.77-134.37,0-225.52,88.58-225.52,217.82,0,45.79,8.99,81.73,28.67,110.41,31.24,14.12,67.61,21.82,107.41,21.82,56.06,0,107.41-14.55,155.77-44.93l108.27,103.99v95.43c-42.37,26.96-110.83,42.79-178.02,42.79-101.85,0-172.46-39.37-233.65-98Zm296.56-50.5v-75.74c-44.93,25.25-96.29,38.94-148.92,38.94-142.93,0-242.64-96.71-242.64-234.51s96.71-229.8,237.5-229.8c57.77,0,115.11,16.26,154.06,43.65v-77.03c-39.37-24.39-102.7-39.37-164.33-39.37-173.74,0-302.98,130.52-302.98,304.69s130.52,306.4,301.26,306.4c51.78,0,122.82-10.7,166.04-37.23Zm-296.99-181.02c0-32.1,5.56-61.62,15.41-88.15h-6.42v-7.7h7.7v4.28c2.14-5.13,4.28-10.7,6.85-15.41v-5.14h2.57c6.42-12.41,14.12-23.96,22.68-34.66h-11.55v-12.41h11.98v11.55c3.85-4.71,8.13-9.41,12.41-13.69h-9.84v-13.69h13.69v9.84c3.85-3.85,7.7-7.27,11.55-10.7h-10.7v-15.41h14.12v-14.12h-14.12v14.12h-15.41v-14.98h14.55v-14.55h-14.55v14.55h-15.41v-15.41h14.55v-14.55h-14.55v14.55h-14.98v-14.98h14.55v-14.55h-14.55v14.12h-15.41v-14.98h14.55v-14.55h-14.55v14.55h-15.41v-4.71l-5.99,5.56h5.56v13.69h-14.12v-5.56l-6.85,7.7h4.71v12.41h-11.98v-3.85l-5.14,7.27h1.28v11.13h-8.56c-15.83,26.96-24.82,51.78-29.1,83.45h4.28v5.14h-4.71c-1.28,9.41-1.71,19.26-1.71,29.53,0,84.73,39.37,153.2,104.42,190.86-14.55-27.39-21.82-60.77-21.82-100.56Zm-80.88-94.15h4.28v4.28h-4.28v-4.28Zm13.27-77.88h8.13v7.7h-8.13v-7.7Zm.86,30.81h6.85v6.85h-6.85v-6.85Zm.43,31.24h5.56v5.56h-5.56v-5.56Zm.86,31.24h3.85v3.85h-3.85v-3.85Zm12.41-109.55h9.41v9.41h-9.41v-9.41Zm.86,31.24h8.13v8.13h-8.13v-8.13Zm.43,31.24h6.85v6.85h-6.85v-6.85Zm.86,31.24h5.56v5.13h-5.56v-5.13Zm.86,31.24h3.85v3.85h-3.85v-3.85Zm11.55-140.79h11.13v10.7h-11.13v-10.7Zm.86,31.24h9.41v9.41h-9.41v-9.41Zm.86,31.24h7.7v7.7h-7.7v-7.7Zm.43,31.24h6.85v6.42h-6.85v-6.42Zm.86,30.81h5.14v5.56h-5.14v-5.56Zm.43,31.24h4.28v4.28h-4.28v-4.28Zm11.13-171.6h12.41v11.98h-12.41v-11.98Zm.86,31.24h10.7v10.7h-10.7v-10.7Zm.86,31.24h9.41v8.99h-9.41v-8.99Zm.43,30.81h8.13v8.13h-8.13v-8.13Zm.86,31.24h6.42v6.85h-6.42v-6.85Zm.43,31.24h5.56v5.56h-5.56v-5.56Zm.86,31.24h3.85v3.85h-3.85v-3.85Zm10.27-203.27h13.69v13.69h-13.69v-13.69Zm.86,31.24h12.41v12.41h-12.41v-12.41Zm.86,31.24h10.7v10.7h-10.7v-10.7Zm.43,31.24h9.41v9.41h-9.41v-9.41Zm.86,31.24h8.13v8.13h-8.13v-8.13Zm.43,31.24h6.85v6.85h-6.85v-6.85Zm.86,31.24h5.14v5.14h-5.14v-5.14Zm.43,31.24h4.28v3.85h-4.28v-3.85Zm10.7-203.27h13.69v13.69h-13.69v-13.69Zm.86,31.24h11.98v12.41h-11.98v-12.41Zm.43,31.24h10.7v10.7h-10.7v-10.7Zm.86,31.24h9.41v9.41h-9.41v-9.41Zm12.84-78.74h14.12v14.12h-14.12v-14.12Zm13.27-62.48v-12.84h-8.13l-4.71,2.57v10.27h12.84Zm-12.41,94.15h12.41v11.98h-12.41v-11.98Zm.86,31.24h10.7v10.7h-10.7v-10.7Zm26.53-109.98v-12.84h-12.84v12.84h12.84Zm-12.84,62.48h13.69v13.69h-13.69v-13.69Zm12.41-93.72v-7.27l-11.55,4.71v2.57h11.55Zm15.83,46.64v-13.27h-12.84v13.27h12.84Zm-.86-31.24v-11.55h-11.13v11.55h11.13Zm16.26,46.22v-12.84h-13.27v12.84h13.27Zm-.86-31.24v-11.13h-11.55v11.13h11.55Zm-.86-31.24v-9.84h-9.84v9.84h9.84Zm17.55,95v-.43h-14.55v11.13c4.71-3.85,9.41-7.27,14.55-10.7Zm-.86-17.12v-12.84h-12.84v12.84h12.84Zm-.43-31.24v-11.55h-11.55v11.55h11.55Zm-.86-31.24v-9.84h-9.84v9.84h9.84Zm-.86-31.24v-3l-8.13,1.71v1.28h8.13Zm5.99,109.12l11.55-6.85v-6.42h-12.84v13.27h1.28Zm10.7-31.24v-11.55h-11.55v11.55h11.55Zm-.86-31.24v-9.84h-9.84v9.84h9.84Zm-.86-31.67v-8.13h-8.13v8.13h8.13Zm17.12,77.88v-11.55h-11.55v11.55h11.55Zm-.86-31.24v-9.84h-9.84v9.84h9.84Zm-.86-31.24v-8.13h-8.13v8.13h8.13Zm-.86-31.24v-5.56l-6.42.43v5.14h6.42Zm16.69,77.88v-9.84h-9.84v9.84h9.84Zm-.43-31.67v-8.13h-8.13v8.13h8.13Zm-.86-31.24v-6.42h-6.85v6.42h6.85Zm17.54,68.47h-10.7v3.85l10.7-3.85Zm-1.71-21.82v-8.13h-8.13v8.13h8.13Zm-.86-31.24v-6.42h-6.42v6.42h6.42Zm-.43-31.24v-5.14h-5.14v5.14h5.14Zm4.28,537.06v-3.42h-3.42v3.42h3.42Zm12.41-459.17v-8.13h-8.13v8.13h8.13Zm-.86-31.24v-6.85h-6.42v6.85h6.42Zm-.86-31.24v-5.14h-5.14v5.14h5.14Zm4.71,537.06v-3.85h-3.85v3.85h3.85Zm11.55-490.84v-6.42h-6.85v6.42h6.85Zm-.86-31.24v-5.14h-5.14v5.14h5.14Zm5.14,507.53v-5.13h-5.56v5.13h5.56Zm-.86,29.53v-3.85h-3.85v3.85h3.85Zm11.55-492.12v-4.71h-6.42v5.56l6.42-.86Zm-.43-29.53v-5.14h-5.14v5.14h5.14Zm4.71,507.53v-5.56h-5.56v5.56h5.56Zm-.86,29.1v-3.85h-3.85v3.85h3.85Zm11.13-521.65v-4.71h-5.14v4.71h5.14Zm5.56,478v-6.85h-6.85v6.85h6.85Zm-.86,29.53v-5.56h-5.14v5.56h5.14Zm-.86,29.1v-3.42h-3.42v3.42h3.42Zm11.55-524.65v-1.71h-5.14v2.14l5.14-.43Zm6.42,451.9v-3.85l-8.99,1.71v2.14h8.99Zm-.86,29.53v-7.27h-7.27v7.27h7.27Zm-1.28,29.1v-5.14h-5.14v5.14h5.14Zm-.43,29.53v-3.85h-3.85v3.85h3.85Zm17.55-73.18v-8.56h-8.99v8.56h8.99Zm-.86,29.53v-7.27h-7.27v7.27h7.27Zm-.86,29.1v-5.13h-5.56v5.13h5.56Zm17.55-72.75v-10.27h-10.7v10.27h10.7Zm-.86,29.53v-8.99h-8.99v8.99h8.99Zm-.86,29.1v-7.27h-7.27v7.27h7.27Zm-.86,29.53v-5.56h-5.56v5.56h5.56Zm18.4-102.28v-6.42l-11.98,4.71v1.71h11.98Zm-.86,29.1v-10.27h-10.27v10.27h10.27Zm-.86,29.53v-8.99h-8.56v8.99h8.56Zm-.86,29.1v-6.85h-6.85v6.85h6.85Zm17.97-72.75v-12.41h-12.41v12.41h12.41Zm-1.28,29.53v-10.7h-10.27v10.7h10.27Zm-.43,29.1v-8.99h-8.99v8.99h8.99Zm-.86,29.53v-7.28h-7.27v7.28h7.27Zm17.97-102.28v-13.69h-13.69v13.69h13.69Zm-.43,29.1v-11.98h-12.41v11.98h12.41Zm-.86,29.53v-10.7h-10.7v10.7h10.7Zm-.86,29.1v-8.56h-8.99v8.56h8.99Zm89.87-548.61l-91.15-91.15v77.46l91.15,85.16v-71.46Zm0,447.62l-91.15-87.3v78.74l91.15,89.44v-80.88Zm-72.32,28.24v-13.69h-14.12v13.69h14.12Zm-.86,29.53v-12.41h-12.41v12.41h12.41Zm-.86,29.1v-10.7h-10.7v10.7h10.7Zm-.86,24.39v-3.85h-8.99v5.99l8.99-2.14Zm17.54-68.04v-13.69h-13.69v13.69h13.69Zm-.86,29.53v-12.41h-11.98v12.41h11.98Zm-.86,29.1v-10.27h-10.27v10.27h10.27Zm16.69-43.22v-14.12h-13.69v14.12h13.69Zm-.86,29.1v-12.41h-11.98v12.41h11.98Zm15.83-14.12v-13.69h-13.69v13.69h13.69Zm-.43,23.54v-6.42h-12.41v11.13l12.41-4.71Zm15.83-8.56v-13.69h-14.12v13.69h14.12Z"/>
      <path class="cls-1" d="m1115.13,1114.2l-93.29-93.29c-50.92-50.92-87.3-127.95-87.3-222.53,0-182.3,138.65-317.53,325.66-317.53,53.49,0,127.1,13.27,187.01,47.07l104.84,104.84v94.15l-9.41,4.71c-53.06-39.37-121.96-63.76-179.3-63.33-136.51,0-231.94,91.15-231.94,221.67,0,45.36,8.99,79.17,27.39,106.13,31.67,14.55,68.04,22.25,108.27,22.25,42.37,0,81.74-9.84,115.11-29.1v-29.96h-32.09l-106.55-106.55v-85.16h233.65l106.56,106.56v271.31c-53.06,45.79-135.23,69.75-223.81,69.75-95.86,0-176.74-33.38-244.78-100.99Zm353.47-74.03v-260.61h-213.11v64.62h138.65v151.92c-38.94,23.54-78.74,34.23-127.1,34.23-139.93,0-242.21-92.86-242.21-230.66s100.56-233.65,243.92-233.65c59.05-.43,118.11,15.83,168.18,46.64v-77.03c-49.21-27.39-114.69-42.79-176.74-42.79-180.59,0-313.67,129.66-313.67,305.54s133.09,305.54,310.25,305.54c78.74,0,160.9-24.39,211.83-63.76Zm-349.19-150.2c0-5.99,0-11.98.43-17.54h-3.42v-4.71h3.85c2.14-24.82,7.7-47.93,15.83-69.33h-6.85v-9.41h9.42v3.42l5.13-11.13v-8.13h4.28c6.42-11.98,14.12-23.11,22.68-33.38h-13.27v-14.12h14.12v13.27c3.85-4.71,8.13-9.41,12.41-13.69h-11.98v-15.41h14.55v-14.55h-14.55v14.55h-15.41v-14.98h-14.98v-15.41h14.55v-14.55h-14.55v14.55h-15.41v-15.41h14.55v-14.12h-14.55v14.12h-15.41v-14.98h-14.98v-3.42l-3.85,3.85h3v14.12h-13.69l-2.14,1.71v12.84h-8.99c-16.26,26.96-25.68,52.21-30.38,82.16h5.56v5.99h-5.99v-3c-1.71,11.98-2.57,23.96-2.57,36.37,0,82.59,38.94,148.92,102.28,186.15-15.41-30.81-19.68-64.62-19.68-95.86Zm-79.17-98.42h4.71v4.71h-4.71v-4.71Zm12.84-78.74h9.42v9.41h-9.42v-9.41Zm.86,31.24h7.7v7.7h-7.7v-7.7Zm.86,31.24h5.99v6.42h-5.99v-6.42Zm.43,31.24h4.71v4.71h-4.71v-4.71Zm12.41-109.55h10.7v10.7h-10.7v-10.7Zm.86,31.24h8.99v9.41h-8.99v-9.41Zm.43,31.24h8.13v7.7h-8.13v-7.7Zm.86,31.24h6.42v5.99h-6.42v-5.99Zm.86,31.24h4.71v4.71h-4.71v-4.71Zm11.55-141.22h12.41v12.41h-12.41v-12.41Zm.43,31.24h11.13v11.13h-11.13v-11.13Zm.86,31.24h9.41v9.41h-9.41v-9.41Zm.86,31.24h7.7v8.13h-7.7v-8.13Zm.86,31.67h5.99v5.99h-5.99v-5.99Zm.86,31.24h4.71v4.28h-4.71v-4.28Zm10.7-172.46h13.69v13.69h-13.69v-13.69Zm.43,31.24h12.41v12.41h-12.41v-12.41Zm.86,31.24h11.13v10.7h-11.13v-10.7Zm.86,31.24h9.41v9.41h-9.41v-9.41Zm.86,31.24h7.7v7.7h-7.7v-7.7Zm.86,31.24h5.99v6.42h-5.99v-6.42Zm.43,31.24h4.71v4.71h-4.71v-4.71Zm24.39-203.7v-14.12h-14.12v14.12h14.12Zm-13.69,31.24h14.12v14.12h-14.12v-14.12Zm.86,31.24h12.41v12.84h-12.41v-12.84Zm.86,31.24h10.7v11.13h-10.7v-11.13Zm.43,31.67h9.41v8.99h-9.41v-8.99Zm.86,31.24h8.13v7.7h-8.13v-7.7Zm.86,31.24h6.42v5.99h-6.42v-5.99Zm24.39-203.7v-12.84h-12.84v12.84h12.84Zm-12.84,62.48h13.69v14.12h-13.69v-14.12Zm.43,31.24h12.84v12.41h-12.84v-12.41Zm.86,31.24h11.13v11.13h-11.13v-11.13Zm13.69-47.07h14.12v13.69h-14.12v-13.69Zm13.27-62.48v-12.84h-12.84v12.84h12.84Zm-12.41,93.72h12.41v12.41h-12.41v-12.41Zm11.55-124.96v-11.55h-4.71l-6.42,3.42v8.13h11.13Zm16.69,77.46v-14.12h-14.12v14.12h14.12Zm-.86-31.24v-12.84h-12.84v12.84h12.84Zm-.43-31.24v-11.13h-11.55v11.13h11.55Zm-.86-31.24v-4.28l-9.41,4.28h9.41Zm16.69,77.88v-12.84h-12.84v12.84h12.84Zm-.86-31.24v-11.55h-11.13v11.55h11.13Zm-.43-31.24v-9.84h-9.84v9.84h9.84Zm15.41,94.57h-12.41v11.13c3.85-3.85,8.13-7.7,12.41-11.13Zm1.28-16.69v-12.84h-12.84v12.84h12.84Zm-.86-31.67v-11.13h-11.13v11.13h11.13Zm-.86-30.81v-10.27h-9.84v10.27h9.84Zm-.43-31.24v-8.56h-8.56v8.56h8.56Zm17.12,98.42v-2.57h-12.84v11.98c4.28-3.42,8.56-6.42,12.84-9.41Zm-.43-20.97v-11.13h-11.55v11.13h11.55Zm-.86-31.24v-9.84h-9.84v9.84h9.84Zm-.43-31.24v-8.56h-8.99v8.56h8.99Zm10.27,77.88l5.99-3.42v-8.13h-11.13v11.55h5.14Zm5.56-31.24v-9.84h-10.27v9.84h10.27Zm-.86-31.24v-8.56h-8.56v8.56h8.56Zm-.43-31.24v-7.27h-7.28v7.27h7.28Zm16.26,77.88v-10.27h-9.84v10.27h9.84Zm-.43-31.24v-8.99h-8.56v8.99h8.56Zm-.86-31.24v-7.27h-7.28v7.27h7.28Zm-.43-31.24v-4.71l-5.99.86v3.85h5.99Zm16.26,77.46v-8.56h-8.56v8.56h8.56Zm-.43-31.24v-7.27h-7.27v7.27h7.27Zm-.86-30.81v-5.99h-5.99v5.99h5.99Zm17.12,70.61v-1.71h-8.99v5.14l8.99-3.42Zm-.86-24.39v-7.27h-7.27v7.27h7.27Zm-.86-31.24v-5.99h-5.99v5.99h5.99Zm-.43-31.24v-4.71h-4.71v4.71h4.71Zm8.56,281.15v-7.7h-11.13v7.7h11.13Zm-5.99,256.76v-3.85h-3.85v3.85h3.85Zm13.69-460.03v-7.27h-7.28v7.27h7.28Zm-.43-31.24v-5.99h-5.99v5.99h5.99Zm-.86-31.24v-4.71h-4.71v4.71h4.71Zm8.13,280.3v-11.13h-10.7v11.13h10.7Zm-5.99,256.76v-3.85h-3.85v3.85h3.85Zm13.69-490.84v-5.56h-5.99v5.56h5.99Zm-.43-30.81v-4.71h-4.71v4.71h4.71Zm1.71,507.96v-5.14h-5.13v5.14h5.13Zm6.42-228.09v-11.13h-11.13v11.13h11.13Zm-6.85,256.33v-3.85h-3.85v3.85h3.85Zm5.99-286.71v-6.85h-9.42v6.85h9.42Zm8.56-203.7v-5.56h-5.99v5.99l5.99-.43Zm-.43-30.81v-4.71h-4.71v4.71h4.71Zm1.28,507.53v-5.13h-5.56v5.13h5.56Zm5.99-228.09v-10.7h-11.13v10.7h11.13Zm-6.85,256.33v-3.85h-3.85v3.85h3.85Zm6.42-286.29v-9.84h-9.84v9.84h9.84Zm9.41,243.92v-6.42h-6.42v6.42h6.42Zm-1.28-478v-4.71h-4.71v4.71h4.71Zm.86,506.67v-5.13h-5.56v5.13h5.56Zm-.86,28.24v-3.85h-3.85v3.85h3.85Zm7.27-255.48v-11.13h-10.7v11.13h10.7Zm-.86-30.81v-9.42h-9.42v9.42h9.42Zm-.86-30.38v-5.99h-8.13v5.99h8.13Zm10.7,245.63v-2.57l-7.27,1.28v1.28h7.27Zm-.43,28.67v-6.42h-6.42v6.42h6.42Zm-.43,28.67v-5.13h-5.13v5.13h5.13Zm0-508.38v-2.14h-4.71v2.14h4.71Zm-.86,536.63v-3.85h-3.85v3.85h3.85Zm7.7-255.48v-11.13h-11.13v11.13h11.13Zm-.43-30.38v-9.41h-9.84v9.41h9.84Zm-.86-30.38v-8.13h-8.13v8.13h8.13Zm10.27,245.21v-7.27h-7.7v7.27h7.7Zm-.86,28.67v-6.42h-6.42v6.42h6.42Zm-.43,28.67v-5.13h-5.14v5.13h5.14Zm7.27-232.37v-5.56h-11.13v5.56h11.13Zm-.86-24.82v-9.42h-9.42v9.42h9.42Zm-.86-30.81v-8.13h-8.13v8.13h8.13Zm-.86-30.38v-5.14h-6.42v5.14h6.42Zm11.55,247.35v-8.99h-8.99v8.99h8.99Zm-.43,28.67v-7.7h-7.7v7.7h7.7Zm-.86,28.24v-6.42h-6.42v6.42h6.42Zm-.43,28.67v-5.13h-5.14v5.13h5.14Zm3.42-256.76v-9.84h-6.42v9.84h6.42Zm0-30.38v-8.56h-5.56v8.56h5.56Zm0-30.81v-6.42h-4.71v6.42h4.71Zm12.84,246.92v-8.99h-8.99v8.99h8.99Zm-.43,28.67v-7.7h-7.7v7.7h7.7Zm-.86,28.24v-6.42h-6.42v6.42h6.42Zm1.71-85.59v-2.57l-7.7,2.57h7.7Zm14.55,14.55v-9.84h-9.84v9.84h9.84Zm-.43,28.67v-8.99h-8.99v8.99h8.99Zm-.43,28.67v-7.7h-7.7v7.7h7.7Zm-.86,28.24v-6.42h-6.42v6.42h6.42Zm17.12-99.28v-11.55h-9.42l-1.71.86v10.7h11.13Zm-.43,28.24v-9.84h-10.27v9.84h10.27Zm-.86,28.67v-8.99h-8.99v8.99h8.99Zm-.43,28.67v-7.7h-7.7v7.7h7.7Zm16.69-99.71v-8.99l-12.41,5.99v3h12.41Zm-.43,28.67v-11.55h-11.13v11.55h11.13Zm-.43,28.24v-9.84h-10.27v9.84h10.27Zm-.86,28.67v-8.99h-8.56v8.99h8.56Zm-.43,28.67v-7.7h-7.7v7.7h7.7Zm16.69-99.71v-12.41h-12.41v12.41h12.41Zm-.43,28.67v-11.55h-11.13v11.55h11.13Zm-.43,28.24v-9.84h-10.27v9.84h10.27Zm-.86,28.67v-8.99h-8.56v8.99h8.56Zm86.87-543.47l-91.15-91.15v82.16l91.15,86.44v-77.46Zm-84.3,429.22v-3.85l-6.42,3.85h6.42Zm14.55,14.55v-13.69h-13.69v13.69h13.69Zm-.43,28.67v-12.41h-12.84v12.41h12.84Zm-.86,28.67v-11.55h-11.13v11.55h11.13Zm-.43,28.24v-9.84h-10.27v9.84h10.27Zm-.86,22.68v-3h-8.56v5.13l8.56-2.14Zm103.13-49.64h-12.41v-13.69h2.57l10.7,10.7v-166.47h-2.14v-4.71h2.14v-24.39h-3.85v-7.7h3.85v-21.4h-5.13v-10.7h5.13v-17.55h-6.85v-11.98l-3.42-3.42h-11.98v-11.98l-3.42-3.42h-11.55v-11.55l-3.85-3.85h-11.55v-11.55l-3.85-3.85h-11.13v-11.13l-3.85-3.85h-11.55v-11.55l-3.85-3.85h-4.28v17.97h5.13v11.13h-5.13v20.97h3.85v7.7h-3.85v24.39h2.14v4.71h-2.14v166.89l3.85,3.85v3h-12.84l-.86.43v14.55h14.55v14.55h14.55v14.55h14.55v14.55h14.55v14.55h14.55v14.55h14.55v9.41l12.84-9.84Zm-86.01-44.08v-13.69h-13.69v13.69h13.69Zm-.43,28.67v-12.41h-12.84v12.41h12.84Zm-.86,28.67v-11.13h-11.13v11.13h11.13Zm-.43,28.24v-9.84h-10.27v9.84h10.27Zm2.14-127.95h3l10.7,10.7v3h-13.69v-13.69Zm14.12,57.34v-13.69h-13.69v13.69h13.69Zm-.43,28.24v-12.41h-12.84v12.41h12.84Zm-.86,28.67v-11.13h-11.13v11.13h11.13Zm-7.7-342.35h10.7v10.7h-10.7v-10.7Zm1.28,32.1h8.13v7.7h-8.13v-7.7Zm1.71,32.1h4.71v4.28h-4.71v-4.28Zm6.42,178.45h3l10.7,10.7v3h-13.69v-13.69Zm14.12,57.34v-13.69h-13.69v13.69h13.69Zm-.43,28.24v-12.41h-12.41v12.41h12.41Zm-.86,20.54v-3h-11.13v7.7l11.13-4.71Zm-7.27-333.79h11.13v11.13h-11.13v-11.13Zm1.71,32.1h7.7v8.13h-7.7v-8.13Zm1.71,32.09h4.28v4.71h-4.28v-4.71Zm5.99,178.02h2.57l10.7,10.7v3h-13.27v-13.69Zm13.69,57.34v-13.69h-13.69v13.69h13.69Zm-2.57,28.24l2.14-.86v-11.55h-12.41v12.41h10.27Zm-5.14-312.39h10.7v10.7h-10.7v-10.7Zm1.28,32.1h8.13v7.7h-8.13v-7.7Zm1.71,32.09h4.71v4.71h-4.71v-4.71Zm5.56,177.16h2.57l10.7,10.7v3h-13.27v-13.69Zm13.69,57.34v-13.69h-13.69v13.69h13.69Zm-7.28-283.29h11.13v10.7h-11.13v-10.7Zm1.71,31.67h7.7v8.13h-7.7v-8.13Zm1.71,32.09h4.71v4.71h-4.71v-4.71Zm4.71,176.74h2.57l10.7,10.7v3h-13.27v-13.69Zm5.56,43.65h-5.56v3.42l5.56-3.42Zm1.71-269.17h11.13v11.13h-11.13v-11.13Zm1.71,32.1h7.7v7.7h-7.7v-7.7Zm1.28,32.09h4.71v4.71h-4.71v-4.71Z"/>
    </g>
  </g>
</svg>