<?xml version="1.0" encoding="UTF-8"?>
<svg id="Layer_1" data-name="Layer 1" xmlns="http://www.w3.org/2000/svg" viewBox="0 0 1920 1885">
  <defs>
    <style>
      .cls-1 {
        fill: #1a1a21;
      }

      .cls-2 {
        fill: #fff;
        stroke: #f20574;
        stroke-miterlimit: 10;
        stroke-width: 60px;
      }
    </style>
  </defs>
  <circle class="cls-2" cx="959.5" cy="942.5" r="912.5"/>
  <g>
    <g>
      <path d="m234.01,976c0-206,172-374,378-374,110,0,200,42,266,106l-80,80c-46-50-110-80-186-80-148,0-258,120-258,268s110,268,258,268c74,0,140-32,186-82l78,78c-68,68-162,110-264,110-222,0-378-152-378-374Z"/>
      <path d="m962,976c0-206,172-374,378-374,110,0,200,42,266,106l-80,80c-46-50-110-80-186-80-148,0-258,120-258,268s110,268,258,268c110,0,200-68,238-164h-238v-104h376c0,204-172,374-376,374-222,0-378-152-378-374Z"/>
    </g>
    <g>
      <path class="cls-1" d="m234.01,976c0-206,172-374,378-374,110,0,200,42,266,106l-80,80c-46-50-110-80-186-80-148,0-258,120-258,268s110,268,258,268c74,0,140-32,186-82l78,78c-68,68-162,110-264,110-222,0-378-152-378-374Z"/>
      <path class="cls-1" d="m962,976c0-206,172-374,378-374,110,0,200,42,266,106l-80,80c-46-50-110-80-186-80-148,0-258,120-258,268s110,268,258,268c110,0,200-68,238-164h-238v-104h376c0,204-172,374-376,374-222,0-378-152-378-374Z"/>
    </g>
  </g>
</svg>