<?xml version="1.0" encoding="UTF-8"?>
<svg id="Layer_1" data-name="Layer 1" xmlns="http://www.w3.org/2000/svg" viewBox="0 0 1920 1905">
  <defs>
    <style>
      .cls-1 {
        fill: #f24130;
        stroke: #f2a2c8;
        stroke-miterlimit: 10;
        stroke-width: 80px;
      }

      .cls-2 {
        fill: #fff;
      }
    </style>
  </defs>
  <circle class="cls-1" cx="959.5" cy="952.5" r="912.5"/>
  <g>
    <g>
      <path d="m908,794.99l-130,60c-25-48-65-76-128-76-105,0-165,92-165,222s61,222,166,222c63,0,100-27,137-89l118,70c-48,99-132,158-259,158-183,0-306-140-306-361s128-361,311-361c132,0,212,64,256,155Z"/>
      <path d="m1574.01,1079.99c0,180-119,282-281,282-183,0-306-140-306-361s128-361,311-361c143,0,219,67,265,175l-133,55c-26-52-58-91-134-91-105,0-165,92-165,222s61,224,166,224c96,0,129-45,137-106h-111v-131h251v92Z"/>
    </g>
    <g>
      <path class="cls-2" d="m908,794.99l-130,60c-25-48-65-76-128-76-105,0-165,92-165,222s61,222,166,222c63,0,100-27,137-89l118,70c-48,99-132,158-259,158-183,0-306-140-306-361s128-361,311-361c132,0,212,64,256,155Z"/>
      <path class="cls-2" d="m1574.01,1079.99c0,180-119,282-281,282-183,0-306-140-306-361s128-361,311-361c143,0,219,67,265,175l-133,55c-26-52-58-91-134-91-105,0-165,92-165,222s61,224,166,224c96,0,129-45,137-106h-111v-131h251v92Z"/>
    </g>
  </g>
</svg>